<svg width="295" height="152" viewBox="0 0 295 152" fill="none" xmlns="http://www.w3.org/2000/svg">
<path d="M11.1995 103.72C12.0929 103.96 12.7729 104.373 13.2395 104.96C13.7062 105.533 13.9395 106.253 13.9395 107.12C13.9395 108.347 13.4862 109.3 12.5795 109.98C11.6729 110.66 10.3595 111 8.63953 111H1.99953V97H8.25953C9.83287 97 11.0595 97.3133 11.9395 97.94C12.8195 98.5667 13.2595 99.4533 13.2595 100.6C13.2595 101.333 13.0795 101.967 12.7195 102.5C12.3729 103.033 11.8662 103.44 11.1995 103.72ZM4.55953 102.98H8.03953C8.87953 102.98 9.51953 102.813 9.95953 102.48C10.3995 102.147 10.6195 101.653 10.6195 101C10.6195 100.347 10.3995 99.8533 9.95953 99.52C9.51953 99.1733 8.87953 99 8.03953 99H4.55953V102.98ZM8.55953 109C10.3995 109 11.3195 108.307 11.3195 106.92C11.3195 105.56 10.3995 104.88 8.55953 104.88H4.55953V109H8.55953ZM21.3814 111.14C20.3014 111.14 19.3281 110.907 18.4614 110.44C17.5947 109.973 16.9147 109.327 16.4214 108.5C15.9414 107.66 15.7014 106.713 15.7014 105.66C15.7014 104.607 15.9414 103.667 16.4214 102.84C16.9147 102.013 17.5947 101.367 18.4614 100.9C19.3281 100.433 20.3014 100.2 21.3814 100.2C22.4747 100.2 23.4547 100.433 24.3214 100.9C25.1881 101.367 25.8614 102.013 26.3414 102.84C26.8347 103.667 27.0814 104.607 27.0814 105.66C27.0814 106.713 26.8347 107.66 26.3414 108.5C25.8614 109.327 25.1881 109.973 24.3214 110.44C23.4547 110.907 22.4747 111.14 21.3814 111.14ZM21.3814 109C22.3014 109 23.0614 108.693 23.6614 108.08C24.2614 107.467 24.5614 106.66 24.5614 105.66C24.5614 104.66 24.2614 103.853 23.6614 103.24C23.0614 102.627 22.3014 102.32 21.3814 102.32C20.4614 102.32 19.7014 102.627 19.1014 103.24C18.5147 103.853 18.2214 104.66 18.2214 105.66C18.2214 106.66 18.5147 107.467 19.1014 108.08C19.7014 108.693 20.4614 109 21.3814 109ZM35.7748 105.44C36.4415 105.627 36.9548 105.933 37.3148 106.36C37.6882 106.773 37.8748 107.273 37.8748 107.86C37.8748 108.513 37.6548 109.093 37.2148 109.6C36.7748 110.093 36.1682 110.48 35.3948 110.76C34.6215 111.04 33.7415 111.18 32.7548 111.18C31.9282 111.18 31.1215 111.087 30.3348 110.9C29.5482 110.7 28.8348 110.42 28.1948 110.06L28.9148 108.2C29.4348 108.493 30.0215 108.72 30.6748 108.88C31.3282 109.04 31.9815 109.12 32.6348 109.12C33.4748 109.12 34.1282 108.993 34.5948 108.74C35.0748 108.473 35.3148 108.113 35.3148 107.66C35.3148 107.247 35.1282 106.927 34.7548 106.7C34.3948 106.473 33.8815 106.36 33.2148 106.36H31.1348V104.68H33.0148C33.6415 104.68 34.1282 104.573 34.4748 104.36C34.8348 104.147 35.0148 103.847 35.0148 103.46C35.0148 103.073 34.8015 102.767 34.3748 102.54C33.9482 102.313 33.3615 102.2 32.6148 102.2C31.5482 102.2 30.4215 102.46 29.2348 102.98L28.5948 101.14C29.9948 100.487 31.4082 100.16 32.8348 100.16C33.7415 100.16 34.5548 100.287 35.2748 100.54C35.9948 100.78 36.5548 101.127 36.9548 101.58C37.3682 102.02 37.5748 102.527 37.5748 103.1C37.5748 103.62 37.4148 104.087 37.0948 104.5C36.7748 104.9 36.3348 105.213 35.7748 105.44ZM50.9691 111V103.92L47.3691 109.88H46.2891L42.7491 103.9V111H40.4691V100.32H43.0891L46.8891 107L50.8691 100.32H53.2091L53.2291 111H50.9691ZM61.3423 111.14C60.2623 111.14 59.289 110.907 58.4223 110.44C57.5557 109.973 56.8757 109.327 56.3823 108.5C55.9023 107.66 55.6623 106.713 55.6623 105.66C55.6623 104.607 55.9023 103.667 56.3823 102.84C56.8757 102.013 57.5557 101.367 58.4223 100.9C59.289 100.433 60.2623 100.2 61.3423 100.2C62.4357 100.2 63.4157 100.433 64.2823 100.9C65.149 101.367 65.8223 102.013 66.3023 102.84C66.7957 103.667 67.0423 104.607 67.0423 105.66C67.0423 106.713 66.7957 107.66 66.3023 108.5C65.8223 109.327 65.149 109.973 64.2823 110.44C63.4157 110.907 62.4357 111.14 61.3423 111.14ZM61.3423 109C62.2623 109 63.0223 108.693 63.6223 108.08C64.2223 107.467 64.5223 106.66 64.5223 105.66C64.5223 104.66 64.2223 103.853 63.6223 103.24C63.0223 102.627 62.2623 102.32 61.3423 102.32C60.4223 102.32 59.6623 102.627 59.0623 103.24C58.4757 103.853 58.1823 104.66 58.1823 105.66C58.1823 106.66 58.4757 107.467 59.0623 108.08C59.6623 108.693 60.4223 109 61.3423 109ZM79.3005 106.72H77.5005V111H75.0205V106.72H73.2205L70.6205 111H67.6605L71.1605 105.48L67.9205 100.32H70.5805L73.1805 104.64H75.0205V100.32H77.5005V104.64H79.3205L81.9405 100.32H84.6005L81.3605 105.48L84.8805 111H81.9005L79.3005 106.72ZM86.7386 100.32H89.2386V104.66H94.6186V100.32H97.1186V111H94.6186V106.78H89.2386V111H86.7386V100.32ZM105.229 111.14C104.149 111.14 103.176 110.907 102.309 110.44C101.442 109.973 100.762 109.327 100.269 108.5C99.7891 107.66 99.5491 106.713 99.5491 105.66C99.5491 104.607 99.7891 103.667 100.269 102.84C100.762 102.013 101.442 101.367 102.309 100.9C103.176 100.433 104.149 100.2 105.229 100.2C106.322 100.2 107.302 100.433 108.169 100.9C109.036 101.367 109.709 102.013 110.189 102.84C110.682 103.667 110.929 104.607 110.929 105.66C110.929 106.713 110.682 107.66 110.189 108.5C109.709 109.327 109.036 109.973 108.169 110.44C107.302 110.907 106.322 111.14 105.229 111.14ZM105.229 109C106.149 109 106.909 108.693 107.509 108.08C108.109 107.467 108.409 106.66 108.409 105.66C108.409 104.66 108.109 103.853 107.509 103.24C106.909 102.627 106.149 102.32 105.229 102.32C104.309 102.32 103.549 102.627 102.949 103.24C102.362 103.853 102.069 104.66 102.069 105.66C102.069 106.66 102.362 107.467 102.949 108.08C103.549 108.693 104.309 109 105.229 109ZM118.259 111.14C117.152 111.14 116.159 110.907 115.279 110.44C114.399 109.973 113.712 109.327 113.219 108.5C112.725 107.66 112.479 106.713 112.479 105.66C112.479 104.607 112.725 103.667 113.219 102.84C113.712 102.013 114.392 101.367 115.259 100.9C116.139 100.433 117.139 100.2 118.259 100.2C119.312 100.2 120.232 100.413 121.019 100.84C121.819 101.267 122.419 101.88 122.819 102.68L120.899 103.8C120.592 103.307 120.205 102.94 119.739 102.7C119.285 102.447 118.785 102.32 118.239 102.32C117.305 102.32 116.532 102.627 115.919 103.24C115.305 103.84 114.999 104.647 114.999 105.66C114.999 106.673 115.299 107.487 115.899 108.1C116.512 108.7 117.292 109 118.239 109C118.785 109 119.285 108.88 119.739 108.64C120.205 108.387 120.592 108.013 120.899 107.52L122.819 108.64C122.405 109.44 121.799 110.06 120.999 110.5C120.212 110.927 119.299 111.14 118.259 111.14ZM133.382 102.44H129.642V111H127.142V102.44H123.382V100.32H133.382V102.44ZM140.556 103.84C141.916 103.84 142.956 104.147 143.676 104.76C144.409 105.373 144.776 106.24 144.776 107.36C144.776 108.533 144.376 109.44 143.576 110.08C142.776 110.72 141.649 111.033 140.196 111.02L135.196 111V100.32H137.696V103.82L140.556 103.84ZM139.976 109.18C140.709 109.193 141.269 109.04 141.656 108.72C142.042 108.4 142.236 107.933 142.236 107.32C142.236 106.72 142.049 106.28 141.676 106C141.302 105.72 140.736 105.573 139.976 105.56L137.696 105.54V109.16L139.976 109.18ZM157.26 111.14C156.18 111.14 155.207 110.907 154.34 110.44C153.474 109.973 152.794 109.327 152.3 108.5C151.82 107.66 151.58 106.713 151.58 105.66C151.58 104.607 151.82 103.667 152.3 102.84C152.794 102.013 153.474 101.367 154.34 100.9C155.207 100.433 156.18 100.2 157.26 100.2C158.354 100.2 159.334 100.433 160.2 100.9C161.067 101.367 161.74 102.013 162.22 102.84C162.714 103.667 162.96 104.607 162.96 105.66C162.96 106.713 162.714 107.66 162.22 108.5C161.74 109.327 161.067 109.973 160.2 110.44C159.334 110.907 158.354 111.14 157.26 111.14ZM157.26 109C158.18 109 158.94 108.693 159.54 108.08C160.14 107.467 160.44 106.66 160.44 105.66C160.44 104.66 160.14 103.853 159.54 103.24C158.94 102.627 158.18 102.32 157.26 102.32C156.34 102.32 155.58 102.627 154.98 103.24C154.394 103.853 154.1 104.66 154.1 105.66C154.1 106.66 154.394 107.467 154.98 108.08C155.58 108.693 156.34 109 157.26 109ZM179.55 105.64C179.55 107.293 178.997 108.593 177.89 109.54C176.797 110.487 175.23 111.027 173.19 111.16V114.88H170.83V111.18C168.79 111.047 167.223 110.507 166.13 109.56C165.037 108.613 164.49 107.307 164.49 105.64C164.49 103.987 165.037 102.7 166.13 101.78C167.223 100.847 168.79 100.313 170.83 100.18V96.16H173.19V100.18C175.23 100.313 176.797 100.847 177.89 101.78C178.997 102.713 179.55 104 179.55 105.64ZM166.95 105.64C166.95 106.667 167.263 107.467 167.89 108.04C168.53 108.613 169.51 108.96 170.83 109.08V102.3C169.51 102.407 168.53 102.74 167.89 103.3C167.263 103.86 166.95 104.64 166.95 105.64ZM173.19 109.08C175.803 108.84 177.11 107.693 177.11 105.64C177.11 104.627 176.783 103.847 176.13 103.3C175.49 102.74 174.51 102.407 173.19 102.3V109.08ZM186.733 111.14C185.653 111.14 184.68 110.907 183.813 110.44C182.946 109.973 182.266 109.327 181.773 108.5C181.293 107.66 181.053 106.713 181.053 105.66C181.053 104.607 181.293 103.667 181.773 102.84C182.266 102.013 182.946 101.367 183.813 100.9C184.68 100.433 185.653 100.2 186.733 100.2C187.826 100.2 188.806 100.433 189.673 100.9C190.54 101.367 191.213 102.013 191.693 102.84C192.186 103.667 192.433 104.607 192.433 105.66C192.433 106.713 192.186 107.66 191.693 108.5C191.213 109.327 190.54 109.973 189.673 110.44C188.806 110.907 187.826 111.14 186.733 111.14ZM186.733 109C187.653 109 188.413 108.693 189.013 108.08C189.613 107.467 189.913 106.66 189.913 105.66C189.913 104.66 189.613 103.853 189.013 103.24C188.413 102.627 187.653 102.32 186.733 102.32C185.813 102.32 185.053 102.627 184.453 103.24C183.866 103.853 183.573 104.66 183.573 105.66C183.573 106.66 183.866 107.467 184.453 108.08C185.053 108.693 185.813 109 186.733 109ZM200.823 100.2C201.863 100.2 202.789 100.427 203.603 100.88C204.429 101.333 205.076 101.973 205.543 102.8C206.009 103.627 206.243 104.58 206.243 105.66C206.243 106.74 206.009 107.7 205.543 108.54C205.076 109.367 204.429 110.007 203.603 110.46C202.789 110.913 201.863 111.14 200.823 111.14C199.383 111.14 198.243 110.66 197.403 109.7V114.88H194.903V100.32H197.283V101.72C197.696 101.213 198.203 100.833 198.803 100.58C199.416 100.327 200.089 100.2 200.823 100.2ZM200.543 109C201.463 109 202.216 108.693 202.803 108.08C203.403 107.467 203.703 106.66 203.703 105.66C203.703 104.66 203.403 103.853 202.803 103.24C202.216 102.627 201.463 102.32 200.543 102.32C199.943 102.32 199.403 102.46 198.923 102.74C198.443 103.007 198.063 103.393 197.783 103.9C197.503 104.407 197.363 104.993 197.363 105.66C197.363 106.327 197.503 106.913 197.783 107.42C198.063 107.927 198.443 108.32 198.923 108.6C199.403 108.867 199.943 109 200.543 109ZM219.231 111V103.92L215.631 109.88H214.551L211.011 103.9V111H208.731V100.32H211.351L215.151 107L219.131 100.32H221.471L221.491 111H219.231ZM234.524 100.32V111H232.024V102.44H228.024L227.924 104.56C227.857 105.973 227.724 107.16 227.524 108.12C227.337 109.067 227.011 109.82 226.544 110.38C226.091 110.927 225.464 111.2 224.664 111.2C224.291 111.2 223.831 111.127 223.284 110.98L223.404 108.88C223.591 108.92 223.751 108.94 223.884 108.94C224.391 108.94 224.771 108.74 225.024 108.34C225.277 107.927 225.437 107.44 225.504 106.88C225.584 106.307 225.651 105.493 225.704 104.44L225.884 100.32H234.524ZM247.891 105.72C247.891 105.893 247.878 106.14 247.851 106.46H239.471C239.618 107.247 239.998 107.873 240.611 108.34C241.238 108.793 242.011 109.02 242.931 109.02C244.104 109.02 245.071 108.633 245.831 107.86L247.171 109.4C246.691 109.973 246.084 110.407 245.351 110.7C244.618 110.993 243.791 111.14 242.871 111.14C241.698 111.14 240.664 110.907 239.771 110.44C238.878 109.973 238.184 109.327 237.691 108.5C237.211 107.66 236.971 106.713 236.971 105.66C236.971 104.62 237.204 103.687 237.671 102.86C238.151 102.02 238.811 101.367 239.651 100.9C240.491 100.433 241.438 100.2 242.491 100.2C243.531 100.2 244.458 100.433 245.271 100.9C246.098 101.353 246.738 102 247.191 102.84C247.658 103.667 247.891 104.627 247.891 105.72ZM242.491 102.2C241.691 102.2 241.011 102.44 240.451 102.92C239.904 103.387 239.571 104.013 239.451 104.8H245.511C245.404 104.027 245.078 103.4 244.531 102.92C243.984 102.44 243.304 102.2 242.491 102.2ZM250.625 100.32H253.125V104.66H258.505V100.32H261.005V111H258.505V106.78H253.125V111H250.625V100.32ZM264.356 100.32H266.856V107.36L272.756 100.32H275.036V111H272.536V103.96L266.656 111H264.356V100.32ZM288.399 105.72C288.399 105.893 288.385 106.14 288.359 106.46H279.979C280.125 107.247 280.505 107.873 281.119 108.34C281.745 108.793 282.519 109.02 283.439 109.02C284.612 109.02 285.579 108.633 286.339 107.86L287.679 109.4C287.199 109.973 286.592 110.407 285.859 110.7C285.125 110.993 284.299 111.14 283.379 111.14C282.205 111.14 281.172 110.907 280.279 110.44C279.385 109.973 278.692 109.327 278.199 108.5C277.719 107.66 277.479 106.713 277.479 105.66C277.479 104.62 277.712 103.687 278.179 102.86C278.659 102.02 279.319 101.367 280.159 100.9C280.999 100.433 281.945 100.2 282.999 100.2C284.039 100.2 284.965 100.433 285.779 100.9C286.605 101.353 287.245 102 287.699 102.84C288.165 103.667 288.399 104.627 288.399 105.72ZM282.999 102.2C282.199 102.2 281.519 102.44 280.959 102.92C280.412 103.387 280.079 104.013 279.959 104.8H286.019C285.912 104.027 285.585 103.4 285.039 102.92C284.492 102.44 283.812 102.2 282.999 102.2ZM24.0854 137.44C24.7521 137.627 25.2654 137.933 25.6254 138.36C25.9987 138.773 26.1854 139.273 26.1854 139.86C26.1854 140.513 25.9654 141.093 25.5254 141.6C25.0854 142.093 24.4787 142.48 23.7054 142.76C22.9321 143.04 22.0521 143.18 21.0654 143.18C20.2387 143.18 19.4321 143.087 18.6454 142.9C17.8587 142.7 17.1454 142.42 16.5054 142.06L17.2254 140.2C17.7454 140.493 18.3321 140.72 18.9854 140.88C19.6387 141.04 20.2921 141.12 20.9454 141.12C21.7854 141.12 22.4387 140.993 22.9054 140.74C23.3854 140.473 23.6254 140.113 23.6254 139.66C23.6254 139.247 23.4387 138.927 23.0654 138.7C22.7054 138.473 22.1921 138.36 21.5254 138.36H19.4454V136.68H21.3254C21.9521 136.68 22.4387 136.573 22.7854 136.36C23.1454 136.147 23.3254 135.847 23.3254 135.46C23.3254 135.073 23.1121 134.767 22.6854 134.54C22.2587 134.313 21.6721 134.2 20.9254 134.2C19.8587 134.2 18.7321 134.46 17.5454 134.98L16.9054 133.14C18.3054 132.487 19.7187 132.16 21.1454 132.16C22.0521 132.16 22.8654 132.287 23.5854 132.54C24.3054 132.78 24.8654 133.127 25.2654 133.58C25.6787 134.02 25.8854 134.527 25.8854 135.1C25.8854 135.62 25.7254 136.087 25.4054 136.5C25.0854 136.9 24.6454 137.213 24.0854 137.44ZM32.7596 132.2C34.3329 132.2 35.5329 132.58 36.3596 133.34C37.1996 134.087 37.6196 135.22 37.6196 136.74V143H35.2596V141.7C34.9529 142.167 34.5129 142.527 33.9396 142.78C33.3796 143.02 32.6996 143.14 31.8996 143.14C31.0996 143.14 30.3996 143.007 29.7996 142.74C29.1996 142.46 28.7329 142.08 28.3996 141.6C28.0796 141.107 27.9196 140.553 27.9196 139.94C27.9196 138.98 28.2729 138.213 28.9796 137.64C29.6996 137.053 30.8263 136.76 32.3596 136.76H35.1196V136.6C35.1196 135.853 34.8929 135.28 34.4396 134.88C33.9996 134.48 33.3396 134.28 32.4596 134.28C31.8596 134.28 31.2663 134.373 30.6796 134.56C30.1063 134.747 29.6196 135.007 29.2196 135.34L28.2396 133.52C28.7996 133.093 29.4729 132.767 30.2596 132.54C31.0463 132.313 31.8796 132.2 32.7596 132.2ZM32.4196 141.32C33.0463 141.32 33.5996 141.18 34.0796 140.9C34.5729 140.607 34.9196 140.193 35.1196 139.66V138.42H32.5396C31.0996 138.42 30.3796 138.893 30.3796 139.84C30.3796 140.293 30.5596 140.653 30.9196 140.92C31.2796 141.187 31.7796 141.32 32.4196 141.32ZM45.1532 138.72H43.2132V143H40.7132V132.32H43.2132V136.64H45.2132L48.3732 132.32H51.0532L47.1732 137.46L51.3132 143H48.3732L45.1532 138.72ZM56.8612 132.2C58.4345 132.2 59.6345 132.58 60.4612 133.34C61.3012 134.087 61.7212 135.22 61.7212 136.74V143H59.3612V141.7C59.0545 142.167 58.6145 142.527 58.0412 142.78C57.4812 143.02 56.8012 143.14 56.0012 143.14C55.2012 143.14 54.5012 143.007 53.9012 142.74C53.3012 142.46 52.8345 142.08 52.5012 141.6C52.1812 141.107 52.0212 140.553 52.0212 139.94C52.0212 138.98 52.3745 138.213 53.0812 137.64C53.8012 137.053 54.9278 136.76 56.4612 136.76H59.2212V136.6C59.2212 135.853 58.9945 135.28 58.5412 134.88C58.1012 134.48 57.4412 134.28 56.5612 134.28C55.9612 134.28 55.3678 134.373 54.7812 134.56C54.2078 134.747 53.7212 135.007 53.3212 135.34L52.3412 133.52C52.9012 133.093 53.5745 132.767 54.3612 132.54C55.1478 132.313 55.9812 132.2 56.8612 132.2ZM56.5212 141.32C57.1478 141.32 57.7012 141.18 58.1812 140.9C58.6745 140.607 59.0212 140.193 59.2212 139.66V138.42H56.6412C55.2012 138.42 54.4812 138.893 54.4812 139.84C54.4812 140.293 54.6612 140.653 55.0212 140.92C55.3812 141.187 55.8812 141.32 56.5212 141.32ZM71.058 137.44C71.7247 137.627 72.238 137.933 72.598 138.36C72.9714 138.773 73.158 139.273 73.158 139.86C73.158 140.513 72.938 141.093 72.498 141.6C72.058 142.093 71.4514 142.48 70.678 142.76C69.9047 143.04 69.0247 143.18 68.038 143.18C67.2114 143.18 66.4047 143.087 65.618 142.9C64.8314 142.7 64.118 142.42 63.478 142.06L64.198 140.2C64.718 140.493 65.3047 140.72 65.958 140.88C66.6114 141.04 67.2647 141.12 67.918 141.12C68.758 141.12 69.4114 140.993 69.878 140.74C70.358 140.473 70.598 140.113 70.598 139.66C70.598 139.247 70.4114 138.927 70.038 138.7C69.678 138.473 69.1647 138.36 68.498 138.36H66.418V136.68H68.298C68.9247 136.68 69.4114 136.573 69.758 136.36C70.118 136.147 70.298 135.847 70.298 135.46C70.298 135.073 70.0847 134.767 69.658 134.54C69.2314 134.313 68.6447 134.2 67.898 134.2C66.8314 134.2 65.7047 134.46 64.518 134.98L63.878 133.14C65.278 132.487 66.6914 132.16 68.118 132.16C69.0247 132.16 69.838 132.287 70.558 132.54C71.278 132.78 71.838 133.127 72.238 133.58C72.6514 134.02 72.858 134.527 72.858 135.1C72.858 135.62 72.698 136.087 72.378 136.5C72.058 136.9 71.618 137.213 71.058 137.44ZM79.7323 132.2C81.3056 132.2 82.5056 132.58 83.3323 133.34C84.1723 134.087 84.5923 135.22 84.5923 136.74V143H82.2323V141.7C81.9256 142.167 81.4856 142.527 80.9123 142.78C80.3523 143.02 79.6723 143.14 78.8723 143.14C78.0723 143.14 77.3723 143.007 76.7723 142.74C76.1723 142.46 75.7056 142.08 75.3723 141.6C75.0523 141.107 74.8923 140.553 74.8923 139.94C74.8923 138.98 75.2456 138.213 75.9523 137.64C76.6723 137.053 77.7989 136.76 79.3323 136.76H82.0923V136.6C82.0923 135.853 81.8656 135.28 81.4123 134.88C80.9723 134.48 80.3123 134.28 79.4323 134.28C78.8323 134.28 78.2389 134.373 77.6523 134.56C77.0789 134.747 76.5923 135.007 76.1923 135.34L75.2123 133.52C75.7723 133.093 76.4456 132.767 77.2323 132.54C78.0189 132.313 78.8523 132.2 79.7323 132.2ZM79.3923 141.32C80.0189 141.32 80.5723 141.18 81.0523 140.9C81.5456 140.607 81.8923 140.193 82.0923 139.66V138.42H79.5123C78.0723 138.42 77.3523 138.893 77.3523 139.84C77.3523 140.293 77.5323 140.653 77.8923 140.92C78.2523 141.187 78.7523 141.32 79.3923 141.32ZM98.9932 132.84C100.007 132.84 100.9 133.06 101.673 133.5C102.447 133.927 103.047 134.527 103.473 135.3C103.913 136.073 104.133 136.96 104.133 137.96C104.133 138.987 103.893 139.9 103.413 140.7C102.933 141.487 102.26 142.1 101.393 142.54C100.527 142.98 99.5399 143.2 98.4332 143.2C96.5799 143.2 95.1465 142.587 94.1332 141.36C93.1199 140.133 92.6132 138.367 92.6132 136.06C92.6132 133.913 93.0732 132.213 93.9932 130.96C94.9132 129.707 96.3199 128.88 98.2132 128.48L103.173 127.42L103.533 129.66L99.0332 130.58C97.7399 130.847 96.7732 131.3 96.1332 131.94C95.4932 132.58 95.1199 133.48 95.0132 134.64C95.4932 134.067 96.0732 133.627 96.7532 133.32C97.4332 133 98.1799 132.84 98.9932 132.84ZM98.4932 141.18C99.4132 141.18 100.153 140.887 100.713 140.3C101.287 139.7 101.573 138.94 101.573 138.02C101.573 137.1 101.287 136.36 100.713 135.8C100.153 135.24 99.4132 134.96 98.4932 134.96C97.5599 134.96 96.8065 135.24 96.2332 135.8C95.6599 136.36 95.3732 137.1 95.3732 138.02C95.3732 138.953 95.6599 139.713 96.2332 140.3C96.8199 140.887 97.5732 141.18 98.4932 141.18ZM116.553 137.72C116.553 137.893 116.54 138.14 116.513 138.46H108.133C108.28 139.247 108.66 139.873 109.273 140.34C109.9 140.793 110.673 141.02 111.593 141.02C112.766 141.02 113.733 140.633 114.493 139.86L115.833 141.4C115.353 141.973 114.746 142.407 114.013 142.7C113.28 142.993 112.453 143.14 111.533 143.14C110.36 143.14 109.326 142.907 108.433 142.44C107.54 141.973 106.846 141.327 106.353 140.5C105.873 139.66 105.633 138.713 105.633 137.66C105.633 136.62 105.866 135.687 106.333 134.86C106.813 134.02 107.473 133.367 108.313 132.9C109.153 132.433 110.1 132.2 111.153 132.2C112.193 132.2 113.12 132.433 113.933 132.9C114.76 133.353 115.4 134 115.853 134.84C116.32 135.667 116.553 136.627 116.553 137.72ZM111.153 134.2C110.353 134.2 109.673 134.44 109.113 134.92C108.566 135.387 108.233 136.013 108.113 136.8H114.173C114.066 136.027 113.74 135.4 113.193 134.92C112.646 134.44 111.966 134.2 111.153 134.2ZM125.472 137.44C126.139 137.627 126.652 137.933 127.012 138.36C127.385 138.773 127.572 139.273 127.572 139.86C127.572 140.513 127.352 141.093 126.912 141.6C126.472 142.093 125.865 142.48 125.092 142.76C124.319 143.04 123.439 143.18 122.452 143.18C121.625 143.18 120.819 143.087 120.032 142.9C119.245 142.7 118.532 142.42 117.892 142.06L118.612 140.2C119.132 140.493 119.719 140.72 120.372 140.88C121.025 141.04 121.679 141.12 122.332 141.12C123.172 141.12 123.825 140.993 124.292 140.74C124.772 140.473 125.012 140.113 125.012 139.66C125.012 139.247 124.825 138.927 124.452 138.7C124.092 138.473 123.579 138.36 122.912 138.36H120.832V136.68H122.712C123.339 136.68 123.825 136.573 124.172 136.36C124.532 136.147 124.712 135.847 124.712 135.46C124.712 135.073 124.499 134.767 124.072 134.54C123.645 134.313 123.059 134.2 122.312 134.2C121.245 134.2 120.119 134.46 118.932 134.98L118.292 133.14C119.692 132.487 121.105 132.16 122.532 132.16C123.439 132.16 124.252 132.287 124.972 132.54C125.692 132.78 126.252 133.127 126.652 133.58C127.065 134.02 127.272 134.527 127.272 135.1C127.272 135.62 127.112 136.087 126.792 136.5C126.472 136.9 126.032 137.213 125.472 137.44ZM141.614 132.2C142.654 132.2 143.58 132.427 144.394 132.88C145.22 133.333 145.867 133.973 146.334 134.8C146.8 135.627 147.034 136.58 147.034 137.66C147.034 138.74 146.8 139.7 146.334 140.54C145.867 141.367 145.22 142.007 144.394 142.46C143.58 142.913 142.654 143.14 141.614 143.14C140.174 143.14 139.034 142.66 138.194 141.7V146.88H135.694V132.32H138.074V133.72C138.487 133.213 138.994 132.833 139.594 132.58C140.207 132.327 140.88 132.2 141.614 132.2ZM141.334 141C142.254 141 143.007 140.693 143.594 140.08C144.194 139.467 144.494 138.66 144.494 137.66C144.494 136.66 144.194 135.853 143.594 135.24C143.007 134.627 142.254 134.32 141.334 134.32C140.734 134.32 140.194 134.46 139.714 134.74C139.234 135.007 138.854 135.393 138.574 135.9C138.294 136.407 138.154 136.993 138.154 137.66C138.154 138.327 138.294 138.913 138.574 139.42C138.854 139.927 139.234 140.32 139.714 140.6C140.194 140.867 140.734 141 141.334 141ZM159.522 137.72C159.522 137.893 159.508 138.14 159.482 138.46H151.102C151.248 139.247 151.628 139.873 152.242 140.34C152.868 140.793 153.642 141.02 154.562 141.02C155.735 141.02 156.702 140.633 157.462 139.86L158.802 141.4C158.322 141.973 157.715 142.407 156.982 142.7C156.248 142.993 155.422 143.14 154.502 143.14C153.328 143.14 152.295 142.907 151.402 142.44C150.508 141.973 149.815 141.327 149.322 140.5C148.842 139.66 148.602 138.713 148.602 137.66C148.602 136.62 148.835 135.687 149.302 134.86C149.782 134.02 150.442 133.367 151.282 132.9C152.122 132.433 153.068 132.2 154.122 132.2C155.162 132.2 156.088 132.433 156.902 132.9C157.728 133.353 158.368 134 158.822 134.84C159.288 135.667 159.522 136.627 159.522 137.72ZM154.122 134.2C153.322 134.2 152.642 134.44 152.082 134.92C151.535 135.387 151.202 136.013 151.082 136.8H157.142C157.035 136.027 156.708 135.4 156.162 134.92C155.615 134.44 154.935 134.2 154.122 134.2ZM170.456 134.44H164.756V143H162.256V132.32H170.456V134.44ZM172.276 132.32H174.776V139.36L180.676 132.32H182.956V143H180.456V135.96L174.576 143H172.276V132.32ZM191.179 143.14C190.072 143.14 189.079 142.907 188.199 142.44C187.319 141.973 186.632 141.327 186.139 140.5C185.645 139.66 185.399 138.713 185.399 137.66C185.399 136.607 185.645 135.667 186.139 134.84C186.632 134.013 187.312 133.367 188.179 132.9C189.059 132.433 190.059 132.2 191.179 132.2C192.232 132.2 193.152 132.413 193.939 132.84C194.739 133.267 195.339 133.88 195.739 134.68L193.819 135.8C193.512 135.307 193.125 134.94 192.659 134.7C192.205 134.447 191.705 134.32 191.159 134.32C190.225 134.32 189.452 134.627 188.839 135.24C188.225 135.84 187.919 136.647 187.919 137.66C187.919 138.673 188.219 139.487 188.819 140.1C189.432 140.7 190.212 141 191.159 141C191.705 141 192.205 140.88 192.659 140.64C193.125 140.387 193.512 140.013 193.819 139.52L195.739 140.64C195.325 141.44 194.719 142.06 193.919 142.5C193.132 142.927 192.219 143.14 191.179 143.14ZM206.302 134.44H202.562V143H200.062V134.44H196.302V132.32H206.302V134.44ZM214.036 132.2C215.076 132.2 216.002 132.427 216.816 132.88C217.642 133.333 218.289 133.973 218.756 134.8C219.222 135.627 219.456 136.58 219.456 137.66C219.456 138.74 219.222 139.7 218.756 140.54C218.289 141.367 217.642 142.007 216.816 142.46C216.002 142.913 215.076 143.14 214.036 143.14C212.596 143.14 211.456 142.66 210.616 141.7V146.88H208.116V132.32H210.496V133.72C210.909 133.213 211.416 132.833 212.016 132.58C212.629 132.327 213.302 132.2 214.036 132.2ZM213.756 141C214.676 141 215.429 140.693 216.016 140.08C216.616 139.467 216.916 138.66 216.916 137.66C216.916 136.66 216.616 135.853 216.016 135.24C215.429 134.627 214.676 134.32 213.756 134.32C213.156 134.32 212.616 134.46 212.136 134.74C211.656 135.007 211.276 135.393 210.996 135.9C210.716 136.407 210.576 136.993 210.576 137.66C210.576 138.327 210.716 138.913 210.996 139.42C211.276 139.927 211.656 140.32 212.136 140.6C212.616 140.867 213.156 141 213.756 141ZM225.787 132.2C227.36 132.2 228.56 132.58 229.387 133.34C230.227 134.087 230.647 135.22 230.647 136.74V143H228.287V141.7C227.98 142.167 227.54 142.527 226.967 142.78C226.407 143.02 225.727 143.14 224.927 143.14C224.127 143.14 223.427 143.007 222.827 142.74C222.227 142.46 221.76 142.08 221.427 141.6C221.107 141.107 220.947 140.553 220.947 139.94C220.947 138.98 221.3 138.213 222.007 137.64C222.727 137.053 223.854 136.76 225.387 136.76H228.147V136.6C228.147 135.853 227.92 135.28 227.467 134.88C227.027 134.48 226.367 134.28 225.487 134.28C224.887 134.28 224.294 134.373 223.707 134.56C223.134 134.747 222.647 135.007 222.247 135.34L221.267 133.52C221.827 133.093 222.5 132.767 223.287 132.54C224.074 132.313 224.907 132.2 225.787 132.2ZM225.447 141.32C226.074 141.32 226.627 141.18 227.107 140.9C227.6 140.607 227.947 140.193 228.147 139.66V138.42H225.567C224.127 138.42 223.407 138.893 223.407 139.84C223.407 140.293 223.587 140.653 223.947 140.92C224.307 141.187 224.807 141.32 225.447 141.32ZM245.461 140.88V145.46H243.121V143H233.741V132.32H236.241V140.88H241.341V132.32H243.841V140.88H245.461ZM247.686 132.32H250.186V139.36L256.086 132.32H258.366V143H255.866V135.96L249.986 143H247.686V132.32ZM261.729 132.32H264.229V139.36L270.129 132.32H272.409V143H269.909V135.96L264.029 143H261.729V132.32ZM276.532 143.14C276.078 143.14 275.692 142.987 275.372 142.68C275.052 142.36 274.892 141.96 274.892 141.48C274.892 140.987 275.045 140.587 275.352 140.28C275.672 139.973 276.065 139.82 276.532 139.82C276.998 139.82 277.385 139.973 277.692 140.28C278.012 140.587 278.172 140.987 278.172 141.48C278.172 141.96 278.012 142.36 277.692 142.68C277.372 142.987 276.985 143.14 276.532 143.14Z" fill="white"/>
<path d="M133.315 13.5635C132.69 13.5635 132.183 14.1084 132.183 14.7808C132.183 16.2575 131.066 17.459 129.694 17.459C128.321 17.459 127.205 16.2575 127.205 14.7808C127.205 13.3041 128.321 12.1027 129.694 12.1027C130.319 12.1027 130.825 11.5577 130.825 10.8853C130.825 10.2129 130.319 9.66797 129.694 9.66797C127.074 9.66797 124.942 11.9616 124.942 14.7807C124.942 17.5997 127.074 19.8934 129.694 19.8934C132.314 19.8934 134.446 17.5997 134.446 14.7807C134.446 14.1084 133.939 13.5635 133.315 13.5635Z" fill="white"/>
<path d="M133.315 27.8465C132.69 27.8465 132.183 28.3915 132.183 29.0639C132.183 30.5406 131.066 31.742 129.694 31.742C128.321 31.742 127.205 30.5406 127.205 29.0639C127.205 27.5872 128.321 26.3858 129.694 26.3858C130.319 26.3858 130.825 25.8408 130.825 25.1684C130.825 24.496 130.319 23.951 129.694 23.951C127.074 23.951 124.942 26.2447 124.942 29.0638C124.942 31.8828 127.074 34.1765 129.694 34.1765C132.314 34.1765 134.446 31.8828 134.446 29.0638C134.446 28.3917 133.939 27.8465 133.315 27.8465Z" fill="white"/>
<path d="M151.687 31.3079H143.238C142.614 31.3079 142.107 31.8529 142.107 32.5253C142.107 33.1976 142.613 33.7426 143.238 33.7426H151.687C152.311 33.7426 152.818 33.1976 152.818 32.5253C152.818 31.8529 152.311 31.3079 151.687 31.3079Z" fill="white"/>
<path d="M151.687 26.1139H143.238C142.614 26.1139 142.107 26.6589 142.107 27.3313C142.107 28.0037 142.613 28.5486 143.238 28.5486H151.687C152.311 28.5486 152.818 28.0037 152.818 27.3313C152.818 26.6589 152.311 26.1139 151.687 26.1139Z" fill="white"/>
<path d="M149.273 45.5909H143.238C142.614 45.5909 142.107 46.1359 142.107 46.8083C142.107 47.4807 142.613 48.0256 143.238 48.0256H149.273C149.898 48.0256 150.404 47.4807 150.404 46.8083C150.404 46.1359 149.898 45.5909 149.273 45.5909Z" fill="white"/>
<path d="M151.687 40.3972H143.238C142.614 40.3972 142.107 40.9421 142.107 41.6145C142.107 42.2869 142.613 42.8318 143.238 42.8318H151.687C152.311 42.8318 152.818 42.2869 152.818 41.6145C152.818 40.9421 152.311 40.3972 151.687 40.3972Z" fill="white"/>
<path d="M162.548 17.0247H143.238C142.614 17.0247 142.107 17.5696 142.107 18.242C142.107 18.9144 142.613 19.4594 143.238 19.4594H162.548C163.173 19.4594 163.68 18.9144 163.68 18.242C163.68 17.5696 163.173 17.0247 162.548 17.0247Z" fill="white"/>
<path d="M157.721 11.8307H143.238C142.614 11.8307 142.107 12.3757 142.107 13.0481C142.107 13.7205 142.613 14.2655 143.238 14.2655H157.721C158.346 14.2655 158.852 13.7205 158.852 13.0481C158.852 12.3757 158.346 11.8307 157.721 11.8307Z" fill="white"/>
<path d="M133.315 42.1297C132.69 42.1297 132.183 42.6747 132.183 43.3471C132.183 44.8238 131.066 46.0252 129.694 46.0252C128.321 46.0252 127.205 44.8238 127.205 43.3471C127.205 41.8704 128.321 40.6689 129.694 40.6689C130.319 40.6689 130.825 40.1239 130.825 39.4516C130.825 38.7792 130.319 38.2342 129.694 38.2342C127.074 38.2342 124.942 40.5279 124.942 43.3469C124.942 46.166 127.074 48.4597 129.694 48.4597C132.314 48.4597 134.446 46.166 134.446 43.3469C134.446 42.6747 133.939 42.1297 133.315 42.1297Z" fill="white"/>
<path d="M169.487 0H115.651C113.087 0 111 1.71101 111 3.81425V58.3499C111 60.4531 113.086 62.1641 115.651 62.1641H142.569C143.389 62.1641 144.054 61.6191 144.054 60.9468C144.054 60.2745 143.389 59.7294 142.569 59.7294H115.651C114.724 59.7294 113.969 59.1105 113.969 58.3497V3.81425C113.969 3.0535 114.724 2.43457 115.651 2.43457H169.487C170.415 2.43457 171.169 3.0535 171.169 3.81425V44.067C171.169 44.7392 171.834 45.2843 172.654 45.2843C173.474 45.2843 174.138 44.7393 174.138 44.067V3.81425C174.138 1.71101 172.052 0 169.487 0Z" fill="white"/>
<path d="M181.276 49.3646C180.224 49.2518 179.173 49.5725 178.341 50.252C177.678 49.0558 176.549 48.2071 175.241 48.0662C174.189 47.9535 173.138 48.2742 172.307 48.9536C171.644 47.7573 170.514 46.9086 169.207 46.7677C168.404 46.6815 167.602 46.8479 166.897 47.2338V31.7314C166.897 30.4727 166.4 29.2661 165.531 28.4211C164.664 27.5768 163.495 27.1647 162.325 27.2907C160.236 27.5158 158.6 29.5476 158.6 31.9166V47.4582L155.274 51.0366C153.507 52.9382 152.793 55.6362 153.366 58.2541L155.891 69.8001C156.914 74.4786 160.748 77.7461 165.216 77.7461H175.421C180.703 77.7461 185 73.1226 185 67.4395V53.9908C185 51.6215 183.364 49.5897 181.276 49.3646ZM182.737 67.4392C182.737 71.7797 179.455 75.3111 175.421 75.3111H165.216C161.804 75.3111 158.875 72.8155 158.093 69.242L155.568 57.696C155.177 55.905 155.665 54.0588 156.874 52.7578L158.6 50.9009V55.1037C158.6 55.7759 159.107 56.3211 159.731 56.3211C160.356 56.3211 160.863 55.7761 160.863 55.1037V31.9165C160.863 30.7829 161.604 29.8151 162.55 29.7133C163.094 29.6545 163.614 29.8371 164.013 30.2264C164.408 30.6107 164.634 31.1594 164.634 31.7315V53.1562C164.634 53.8285 165.141 54.3736 165.766 54.3736C166.391 54.3736 166.897 53.8286 166.897 53.1562V51.2085C166.897 50.6363 167.124 50.0877 167.519 49.7034C167.919 49.3141 168.438 49.1314 168.982 49.1903C169.928 49.2922 170.669 50.2601 170.669 51.3936V54.4544C170.669 55.1266 171.176 55.6718 171.8 55.6718C172.425 55.6718 172.932 55.1268 172.932 54.4544V52.5066C172.932 51.9345 173.158 51.3859 173.553 51.0015C173.953 50.6122 174.473 50.4297 175.016 50.4884C175.962 50.5903 176.704 51.5582 176.704 52.6917V55.7527C176.704 56.4249 177.21 56.97 177.835 56.97C178.46 56.97 178.966 56.4251 178.966 55.7527V53.8049C178.966 53.2328 179.193 52.6842 179.588 52.2998C179.988 51.9106 180.507 51.7278 181.051 51.7869C181.997 51.8886 182.738 52.8565 182.738 53.99V67.4392H182.737Z" fill="white"/>
</svg>
