<svg width="37" height="36" fill="none" xmlns="http://www.w3.org/2000/svg"><path d="M7.13 9.769h22.582a1 1 0 01.969 1.248l-1.9 7.434a3 3 0 01-2.907 2.256H9.025M0 3.5h4.652a2 2 0 011.975 1.685l3.02 18.971a2 2 0 001.975 1.686h16.581m-12.434 6.424c0 1.302-1.01 2.31-2.2 2.31-1.188 0-2.199-1.008-2.199-2.31 0-1.303 1.01-2.31 2.2-2.31 1.188 0 2.199 1.007 2.199 2.31zm12.977 0c0 1.302-1.01 2.31-2.2 2.31-1.188 0-2.199-1.008-2.199-2.31 0-1.303 1.01-2.31 2.2-2.31 1.188 0 2.199 1.007 2.199 2.31z" stroke="#000" stroke-width="1.5"/><circle cx="30" cy="7" r="7" fill="#E8AA31"/><path d="M29.672 10.064c-.443 0-.837-.112-1.184-.336-.341-.23-.61-.56-.808-.992-.197-.432-.296-.944-.296-1.536 0-.592.099-1.104.296-1.536.197-.432.467-.76.808-.984.347-.23.741-.344 1.184-.344.437 0 .827.115 1.168.344.347.224.619.552.816.984.197.432.296.944.296 1.536 0 .592-.099 1.104-.296 1.536-.197.432-.47.763-.816.992a2.08 2.08 0 01-1.168.336zm0-.712c.448 0 .805-.184 1.072-.552.272-.368.408-.901.408-1.6 0-.699-.136-1.232-.408-1.6a1.258 1.258 0 00-1.072-.552c-.453 0-.816.184-1.088.552-.267.368-.4.901-.4 1.6 0 .699.133 1.232.4 1.6.272.368.635.552 1.088.552z" fill="#fff"/></svg>