<svg xmlns="http://www.w3.org/2000/svg" viewBox="0 0 487.85 487.85"><g fill="#fff"><path d="M243.925 98.525c-93.2 0-177.7 50.9-240.1 133.8-5.1 6.8-5.1 16.2 0 23 62.4 83 146.9 134 240.1 134s177.7-50.9 240.1-133.8c5.1-6.8 5.1-16.2 0-23-62.4-83-146.9-134-240.1-134zm6.7 247.8c-61.9 3.9-112.9-47.1-109-109 3.2-51 44.6-92.5 95.7-95.7 61.9-3.9 112.9 47.1 109 109-3.3 51-44.7 92.4-95.7 95.7z"/><path d="M247.525 299.025c-33.3 2.1-60.8-25.4-58.7-58.7 1.7-27.5 24-49.8 51.5-51.5 33.3-2.1 60.8 25.4 58.7 58.7-1.7 27.5-24 49.8-51.5 51.5z"/></g></svg>