<svg width="295" height="152" fill="none" xmlns="http://www.w3.org/2000/svg"><path d="M11.2 103.72c.893.24 1.573.653 2.04 1.24.466.573.7 1.293.7 2.16 0 1.227-.454 2.18-1.36 2.86-.907.68-2.22 1.02-3.94 1.02H2V97h6.26c1.573 0 2.8.313 3.68.94.88.627 1.32 1.513 1.32 2.66 0 .733-.18 1.367-.54 1.9-.347.533-.854.94-1.52 1.22zm-6.64-.74h3.48c.84 0 1.48-.167 1.92-.5.44-.333.66-.827.66-1.48s-.22-1.147-.66-1.48c-.44-.347-1.08-.52-1.92-.52H4.56v3.98zm4 6.02c1.84 0 2.76-.693 2.76-2.08 0-1.36-.92-2.04-2.76-2.04h-4V109h4zm12.821 2.14c-1.08 0-2.053-.233-2.92-.7a5.195 5.195 0 01-2.04-1.94c-.48-.84-.72-1.787-.72-2.84s.24-1.993.72-2.82a5.195 5.195 0 012.04-1.94c.867-.467 1.84-.7 2.92-.7 1.094 0 2.074.233 2.94.7a5.055 5.055 0 012.02 1.94c.494.827.74 1.767.74 2.82s-.246 2-.74 2.84a5.055 5.055 0 01-2.02 1.94c-.866.467-1.846.7-2.94.7zm0-2.14c.92 0 1.68-.307 2.28-.92.6-.613.9-1.42.9-2.42s-.3-1.807-.9-2.42c-.6-.613-1.36-.92-2.28-.92-.92 0-1.68.307-2.28.92-.586.613-.88 1.42-.88 2.42s.294 1.807.88 2.42c.6.613 1.36.92 2.28.92zm14.394-3.56c.666.187 1.18.493 1.54.92.373.413.56.913.56 1.5 0 .653-.22 1.233-.66 1.74-.44.493-1.047.88-1.82 1.16-.774.28-1.654.42-2.64.42-.827 0-1.634-.093-2.42-.28-.787-.2-1.5-.48-2.14-.84l.72-1.86c.52.293 1.107.52 1.76.68.653.16 1.306.24 1.96.24.84 0 1.493-.127 1.96-.38.48-.267.72-.627.72-1.08 0-.413-.187-.733-.56-.96-.36-.227-.873-.34-1.54-.34h-2.08v-1.68h1.88c.627 0 1.113-.107 1.46-.32.36-.213.54-.513.54-.9s-.214-.693-.64-.92c-.427-.227-1.014-.34-1.76-.34-1.067 0-2.194.26-3.38.78l-.64-1.84c1.4-.653 2.813-.98 4.24-.98.907 0 1.72.127 2.44.38.72.24 1.28.587 1.68 1.04.413.44.62.947.62 1.52 0 .52-.16.987-.48 1.4-.32.4-.76.713-1.32.94zM50.969 111v-7.08l-3.6 5.96h-1.08l-3.54-5.98v7.1h-2.28v-10.68h2.62l3.8 6.68 3.98-6.68h2.34l.02 10.68h-2.26zm10.373.14c-1.08 0-2.053-.233-2.92-.7a5.196 5.196 0 01-2.04-1.94c-.48-.84-.72-1.787-.72-2.84s.24-1.993.72-2.82a5.196 5.196 0 012.04-1.94c.867-.467 1.84-.7 2.92-.7 1.094 0 2.074.233 2.94.7a5.055 5.055 0 012.02 1.94c.494.827.74 1.767.74 2.82s-.246 2-.74 2.84a5.055 5.055 0 01-2.02 1.94c-.866.467-1.846.7-2.94.7zm0-2.14c.92 0 1.68-.307 2.28-.92.6-.613.9-1.42.9-2.42s-.3-1.807-.9-2.42c-.6-.613-1.36-.92-2.28-.92-.92 0-1.68.307-2.28.92-.586.613-.88 1.42-.88 2.42s.294 1.807.88 2.42c.6.613 1.36.92 2.28.92zm17.959-2.28h-1.8V111h-2.48v-4.28h-1.8l-2.6 4.28h-2.96l3.5-5.52-3.24-5.16h2.66l2.6 4.32h1.84v-4.32h2.48v4.32h1.82l2.62-4.32h2.66l-3.24 5.16 3.52 5.52H81.9l-2.6-4.28zm7.438-6.4h2.5v4.34h5.38v-4.34h2.5V111h-2.5v-4.22h-5.38V111h-2.5v-10.68zm18.49 10.82c-1.08 0-2.053-.233-2.92-.7a5.191 5.191 0 01-2.04-1.94c-.48-.84-.72-1.787-.72-2.84s.24-1.993.72-2.82a5.191 5.191 0 012.04-1.94c.867-.467 1.84-.7 2.92-.7 1.093 0 2.073.233 2.94.7a5.053 5.053 0 012.02 1.94c.493.827.74 1.767.74 2.82s-.247 2-.74 2.84a5.053 5.053 0 01-2.02 1.94c-.867.467-1.847.7-2.94.7zm0-2.14c.92 0 1.68-.307 2.28-.92.6-.613.9-1.42.9-2.42s-.3-1.807-.9-2.42c-.6-.613-1.36-.92-2.28-.92-.92 0-1.68.307-2.28.92-.587.613-.88 1.42-.88 2.42s.293 1.807.88 2.42c.6.613 1.36.92 2.28.92zm13.03 2.14c-1.107 0-2.1-.233-2.98-.7a5.16 5.16 0 01-2.06-1.94c-.494-.84-.74-1.787-.74-2.84s.246-1.993.74-2.82a5.191 5.191 0 012.04-1.94c.88-.467 1.88-.7 3-.7 1.053 0 1.973.213 2.76.64.8.427 1.4 1.04 1.8 1.84l-1.92 1.12c-.307-.493-.694-.86-1.16-1.1a3.03 3.03 0 00-1.5-.38c-.934 0-1.707.307-2.32.92-.614.6-.92 1.407-.92 2.42s.3 1.827.9 2.44c.613.6 1.393.9 2.34.9a3.16 3.16 0 001.5-.36 3.113 3.113 0 001.16-1.12l1.92 1.12c-.414.8-1.02 1.42-1.82 1.86-.787.427-1.7.64-2.74.64zm15.123-8.7h-3.74V111h-2.5v-8.56h-3.76v-2.12h10v2.12zm7.174 1.4c1.36 0 2.4.307 3.12.92.733.613 1.1 1.48 1.1 2.6 0 1.173-.4 2.08-1.2 2.72-.8.64-1.927.953-3.38.94l-5-.02v-10.68h2.5v3.5l2.86.02zm-.58 5.34c.733.013 1.293-.14 1.68-.46.386-.32.58-.787.58-1.4 0-.6-.187-1.04-.56-1.32-.374-.28-.94-.427-1.7-.44l-2.28-.02v3.62l2.28.02zm17.284 1.96c-1.08 0-2.053-.233-2.92-.7a5.204 5.204 0 01-2.04-1.94c-.48-.84-.72-1.787-.72-2.84s.24-1.993.72-2.82a5.204 5.204 0 012.04-1.94c.867-.467 1.84-.7 2.92-.7 1.094 0 2.074.233 2.94.7a5.053 5.053 0 012.02 1.94c.494.827.74 1.767.74 2.82s-.246 2-.74 2.84a5.053 5.053 0 01-2.02 1.94c-.866.467-1.846.7-2.94.7zm0-2.14c.92 0 1.68-.307 2.28-.92.6-.613.9-1.42.9-2.42s-.3-1.807-.9-2.42c-.6-.613-1.36-.92-2.28-.92-.92 0-1.68.307-2.28.92-.586.613-.88 1.42-.88 2.42s.294 1.807.88 2.42c.6.613 1.36.92 2.28.92zm22.29-3.36c0 1.653-.553 2.953-1.66 3.9-1.093.947-2.66 1.487-4.7 1.62v3.72h-2.36v-3.7c-2.04-.133-3.607-.673-4.7-1.62-1.093-.947-1.64-2.253-1.64-3.92 0-1.653.547-2.94 1.64-3.86 1.093-.933 2.66-1.467 4.7-1.6v-4.02h2.36v4.02c2.04.133 3.607.667 4.7 1.6 1.107.933 1.66 2.22 1.66 3.86zm-12.6 0c0 1.027.313 1.827.94 2.4.64.573 1.62.92 2.94 1.04v-6.78c-1.32.107-2.3.44-2.94 1-.627.56-.94 1.34-.94 2.34zm6.24 3.44c2.613-.24 3.92-1.387 3.92-3.44 0-1.013-.327-1.793-.98-2.34-.64-.56-1.62-.893-2.94-1v6.78zm13.543 2.06c-1.08 0-2.053-.233-2.92-.7a5.191 5.191 0 01-2.04-1.94c-.48-.84-.72-1.787-.72-2.84s.24-1.993.72-2.82a5.191 5.191 0 012.04-1.94c.867-.467 1.84-.7 2.92-.7 1.093 0 2.073.233 2.94.7a5.053 5.053 0 012.02 1.94c.493.827.74 1.767.74 2.82s-.247 2-.74 2.84a5.053 5.053 0 01-2.02 1.94c-.867.467-1.847.7-2.94.7zm0-2.14c.92 0 1.68-.307 2.28-.92.6-.613.9-1.42.9-2.42s-.3-1.807-.9-2.42c-.6-.613-1.36-.92-2.28-.92-.92 0-1.68.307-2.28.92-.587.613-.88 1.42-.88 2.42s.293 1.807.88 2.42c.6.613 1.36.92 2.28.92zm14.09-8.8c1.04 0 1.966.227 2.78.68a4.888 4.888 0 011.94 1.92c.466.827.7 1.78.7 2.86 0 1.08-.234 2.04-.7 2.88a4.888 4.888 0 01-1.94 1.92c-.814.453-1.74.68-2.78.68-1.44 0-2.58-.48-3.42-1.44v5.18h-2.5v-14.56h2.38v1.4c.413-.507.92-.887 1.52-1.14a5.244 5.244 0 012.02-.38zm-.28 8.8c.92 0 1.673-.307 2.26-.92.6-.613.9-1.42.9-2.42s-.3-1.807-.9-2.42c-.587-.613-1.34-.92-2.26-.92-.6 0-1.14.14-1.62.42-.48.267-.86.653-1.14 1.16-.28.507-.42 1.093-.42 1.76s.14 1.253.42 1.76c.28.507.66.9 1.14 1.18.48.267 1.02.4 1.62.4zm18.688 2v-7.08l-3.6 5.96h-1.08l-3.54-5.98v7.1h-2.28v-10.68h2.62l3.8 6.68 3.98-6.68h2.34l.02 10.68h-2.26zm15.293-10.68V111h-2.5v-8.56h-4l-.1 2.12c-.067 1.413-.2 2.6-.4 3.56-.187.947-.513 1.7-.98 2.26-.453.547-1.08.82-1.88.82-.373 0-.833-.073-1.38-.22l.12-2.1c.187.04.347.06.48.06.507 0 .887-.2 1.14-.6.253-.413.413-.9.48-1.46.08-.573.147-1.387.2-2.44l.18-4.12h8.64zm13.367 5.4c0 .173-.013.42-.04.74h-8.38c.147.787.527 1.413 1.14 1.88.627.453 1.4.68 2.32.68 1.173 0 2.14-.387 2.9-1.16l1.34 1.54a4.517 4.517 0 01-1.82 1.3c-.733.293-1.56.44-2.48.44-1.173 0-2.207-.233-3.1-.7-.893-.467-1.587-1.113-2.08-1.94-.48-.84-.72-1.787-.72-2.84 0-1.04.233-1.973.7-2.8a5.089 5.089 0 011.98-1.96c.84-.467 1.787-.7 2.84-.7 1.04 0 1.967.233 2.78.7a4.716 4.716 0 011.92 1.94c.467.827.7 1.787.7 2.88zm-5.4-3.52c-.8 0-1.48.24-2.04.72-.547.467-.88 1.093-1 1.88h6.06c-.107-.773-.433-1.4-.98-1.88-.547-.48-1.227-.72-2.04-.72zm8.134-1.88h2.5v4.34h5.38v-4.34h2.5V111h-2.5v-4.22h-5.38V111h-2.5v-10.68zm13.731 0h2.5v7.04l5.9-7.04h2.28V111h-2.5v-7.04l-5.88 7.04h-2.3v-10.68zm24.043 5.4c0 .173-.014.42-.04.74h-8.38c.146.787.526 1.413 1.14 1.88.626.453 1.4.68 2.32.68 1.173 0 2.14-.387 2.9-1.16l1.34 1.54a4.517 4.517 0 01-1.82 1.3c-.734.293-1.56.44-2.48.44-1.174 0-2.207-.233-3.1-.7-.894-.467-1.587-1.113-2.08-1.94-.48-.84-.72-1.787-.72-2.84 0-1.04.233-1.973.7-2.8a5.089 5.089 0 011.98-1.96c.84-.467 1.786-.7 2.84-.7 1.04 0 1.966.233 2.78.7a4.728 4.728 0 011.92 1.94c.466.827.7 1.787.7 2.88zm-5.4-3.52c-.8 0-1.48.24-2.04.72-.547.467-.88 1.093-1 1.88h6.06c-.107-.773-.434-1.4-.98-1.88-.547-.48-1.227-.72-2.04-.72zM24.085 137.44c.667.187 1.18.493 1.54.92.374.413.56.913.56 1.5 0 .653-.22 1.233-.66 1.74-.44.493-1.046.88-1.82 1.16-.773.28-1.653.42-2.64.42-.826 0-1.633-.093-2.42-.28a8.73 8.73 0 01-2.14-.84l.72-1.86c.52.293 1.107.52 1.76.68a8.22 8.22 0 001.96.24c.84 0 1.494-.127 1.96-.38.48-.267.72-.627.72-1.08 0-.413-.186-.733-.56-.96-.36-.227-.873-.34-1.54-.34h-2.08v-1.68h1.88c.627 0 1.114-.107 1.46-.32.36-.213.54-.513.54-.9s-.213-.693-.64-.92c-.426-.227-1.013-.34-1.76-.34-1.066 0-2.193.26-3.38.78l-.64-1.84c1.4-.653 2.814-.98 4.24-.98.907 0 1.72.127 2.44.38.72.24 1.28.587 1.68 1.04.414.44.62.947.62 1.52 0 .52-.16.987-.48 1.4-.32.4-.76.713-1.32.94zm8.675-5.24c1.573 0 2.773.38 3.6 1.14.84.747 1.26 1.88 1.26 3.4V143h-2.36v-1.3c-.307.467-.747.827-1.32 1.08-.56.24-1.24.36-2.04.36s-1.5-.133-2.1-.4c-.6-.28-1.067-.66-1.4-1.14a2.985 2.985 0 01-.48-1.66c0-.96.353-1.727 1.06-2.3.72-.587 1.846-.88 3.38-.88h2.76v-.16c0-.747-.227-1.32-.68-1.72-.44-.4-1.1-.6-1.98-.6-.6 0-1.194.093-1.78.28a4.373 4.373 0 00-1.46.78l-.98-1.82c.56-.427 1.233-.753 2.02-.98a8.976 8.976 0 012.5-.34zm-.34 9.12c.626 0 1.18-.14 1.66-.42.493-.293.84-.707 1.04-1.24v-1.24h-2.58c-1.44 0-2.16.473-2.16 1.42 0 .453.18.813.54 1.08.36.267.86.4 1.5.4zm12.733-2.6h-1.94V143h-2.5v-10.68h2.5v4.32h2l3.16-4.32h2.68l-3.88 5.14 4.14 5.54h-2.94l-3.22-4.28zm11.708-6.52c1.574 0 2.774.38 3.6 1.14.84.747 1.26 1.88 1.26 3.4V143h-2.36v-1.3c-.306.467-.746.827-1.32 1.08-.56.24-1.24.36-2.04.36s-1.5-.133-2.1-.4c-.6-.28-1.067-.66-1.4-1.14a2.985 2.985 0 01-.48-1.66c0-.96.353-1.727 1.06-2.3.72-.587 1.847-.88 3.38-.88h2.76v-.16c0-.747-.226-1.32-.68-1.72-.44-.4-1.1-.6-1.98-.6-.6 0-1.193.093-1.78.28a4.372 4.372 0 00-1.46.78l-.98-1.82c.56-.427 1.233-.753 2.02-.98a8.975 8.975 0 012.5-.34zm-.34 9.12c.627 0 1.18-.14 1.66-.42.494-.293.84-.707 1.04-1.24v-1.24h-2.58c-1.44 0-2.16.473-2.16 1.42 0 .453.18.813.54 1.08.36.267.86.4 1.5.4zm14.537-3.88c.667.187 1.18.493 1.54.92.373.413.56.913.56 1.5 0 .653-.22 1.233-.66 1.74-.44.493-1.047.88-1.82 1.16-.773.28-1.653.42-2.64.42-.827 0-1.633-.093-2.42-.28-.787-.2-1.5-.48-2.14-.84l.72-1.86c.52.293 1.107.52 1.76.68.653.16 1.307.24 1.96.24.84 0 1.493-.127 1.96-.38.48-.267.72-.627.72-1.08 0-.413-.187-.733-.56-.96-.36-.227-.873-.34-1.54-.34h-2.08v-1.68h1.88c.627 0 1.113-.107 1.46-.32.36-.213.54-.513.54-.9s-.213-.693-.64-.92c-.427-.227-1.013-.34-1.76-.34-1.067 0-2.193.26-3.38.78l-.64-1.84c1.4-.653 2.813-.98 4.24-.98.907 0 1.72.127 2.44.38.72.24 1.28.587 1.68 1.04.413.44.62.947.62 1.52 0 .52-.16.987-.48 1.4-.32.4-.76.713-1.32.94zm8.674-5.24c1.574 0 2.774.38 3.6 1.14.84.747 1.26 1.88 1.26 3.4V143h-2.36v-1.3c-.306.467-.746.827-1.32 1.08-.56.24-1.24.36-2.04.36s-1.5-.133-2.1-.4c-.6-.28-1.066-.66-1.4-1.14a2.985 2.985 0 01-.48-1.66c0-.96.354-1.727 1.06-2.3.72-.587 1.847-.88 3.38-.88h2.76v-.16c0-.747-.226-1.32-.68-1.72-.44-.4-1.1-.6-1.98-.6-.6 0-1.193.093-1.78.28a4.372 4.372 0 00-1.46.78l-.98-1.82c.56-.427 1.234-.753 2.02-.98a8.975 8.975 0 012.5-.34zm-.34 9.12c.627 0 1.18-.14 1.66-.42.494-.293.84-.707 1.04-1.24v-1.24h-2.58c-1.44 0-2.16.473-2.16 1.42 0 .453.18.813.54 1.08.36.267.86.4 1.5.4zm19.601-8.48c1.014 0 1.907.22 2.68.66a4.494 4.494 0 011.8 1.8c.44.773.66 1.66.66 2.66 0 1.027-.24 1.94-.72 2.74-.48.787-1.153 1.4-2.02 1.84-.866.44-1.853.66-2.96.66-1.853 0-3.287-.613-4.3-1.84s-1.52-2.993-1.52-5.3c0-2.147.46-3.847 1.38-5.1.92-1.253 2.327-2.08 4.22-2.48l4.96-1.06.36 2.24-4.5.92c-1.293.267-2.26.72-2.9 1.36-.64.64-1.013 1.54-1.12 2.7a4.84 4.84 0 011.74-1.32c.68-.32 1.427-.48 2.24-.48zm-.5 8.34c.92 0 1.66-.293 2.22-.88.574-.6.86-1.36.86-2.28 0-.92-.286-1.66-.86-2.22-.56-.56-1.3-.84-2.22-.84-.933 0-1.686.28-2.26.84-.573.56-.86 1.3-.86 2.22 0 .933.287 1.693.86 2.28.587.587 1.34.88 2.26.88zm18.06-3.46c0 .173-.013.42-.04.74h-8.38c.147.787.527 1.413 1.14 1.88.627.453 1.4.68 2.32.68 1.173 0 2.14-.387 2.9-1.16l1.34 1.54a4.517 4.517 0 01-1.82 1.3c-.733.293-1.56.44-2.48.44-1.173 0-2.207-.233-3.1-.7-.893-.467-1.587-1.113-2.08-1.94-.48-.84-.72-1.787-.72-2.84 0-1.04.233-1.973.7-2.8a5.089 5.089 0 011.98-1.96c.84-.467 1.787-.7 2.84-.7 1.04 0 1.967.233 2.78.7a4.716 4.716 0 011.92 1.94c.467.827.7 1.787.7 2.88zm-5.4-3.52c-.8 0-1.48.24-2.04.72-.547.467-.88 1.093-1 1.88h6.06c-.107-.773-.433-1.4-.98-1.88-.547-.48-1.227-.72-2.04-.72zm14.319 3.24c.667.187 1.18.493 1.54.92.373.413.56.913.56 1.5 0 .653-.22 1.233-.66 1.74-.44.493-1.047.88-1.82 1.16-.773.28-1.653.42-2.64.42-.827 0-1.633-.093-2.42-.28-.787-.2-1.5-.48-2.14-.84l.72-1.86c.52.293 1.107.52 1.76.68.653.16 1.307.24 1.96.24.84 0 1.493-.127 1.96-.38.48-.267.72-.627.72-1.08 0-.413-.187-.733-.56-.96-.36-.227-.873-.34-1.54-.34h-2.08v-1.68h1.88c.627 0 1.113-.107 1.46-.32.36-.213.54-.513.54-.9s-.213-.693-.64-.92c-.427-.227-1.013-.34-1.76-.34-1.067 0-2.193.26-3.38.78l-.64-1.84c1.4-.653 2.813-.98 4.24-.98.907 0 1.72.127 2.44.38.72.24 1.28.587 1.68 1.04.413.44.62.947.62 1.52 0 .52-.16.987-.48 1.4-.32.4-.76.713-1.32.94zm16.142-5.24c1.04 0 1.966.227 2.78.68a4.888 4.888 0 011.94 1.92c.466.827.7 1.78.7 2.86 0 1.08-.234 2.04-.7 2.88a4.888 4.888 0 01-1.94 1.92c-.814.453-1.74.68-2.78.68-1.44 0-2.58-.48-3.42-1.44v5.18h-2.5v-14.56h2.38v1.4c.413-.507.92-.887 1.52-1.14a5.244 5.244 0 012.02-.38zm-.28 8.8c.92 0 1.673-.307 2.26-.92.6-.613.9-1.42.9-2.42s-.3-1.807-.9-2.42c-.587-.613-1.34-.92-2.26-.92-.6 0-1.14.14-1.62.42-.48.267-.86.653-1.14 1.16-.28.507-.42 1.093-.42 1.76s.14 1.253.42 1.76c.28.507.66.9 1.14 1.18.48.267 1.02.4 1.62.4zm18.188-3.28c0 .173-.014.42-.04.74h-8.38c.146.787.526 1.413 1.14 1.88.626.453 1.4.68 2.32.68 1.173 0 2.14-.387 2.9-1.16l1.34 1.54a4.517 4.517 0 01-1.82 1.3c-.734.293-1.56.44-2.48.44-1.174 0-2.207-.233-3.1-.7-.894-.467-1.587-1.113-2.08-1.94-.48-.84-.72-1.787-.72-2.84 0-1.04.233-1.973.7-2.8a5.089 5.089 0 011.98-1.96c.84-.467 1.786-.7 2.84-.7 1.04 0 1.966.233 2.78.7a4.728 4.728 0 011.92 1.94c.466.827.7 1.787.7 2.88zm-5.4-3.52c-.8 0-1.48.24-2.04.72-.547.467-.88 1.093-1 1.88h6.06c-.107-.773-.434-1.4-.98-1.88-.547-.48-1.227-.72-2.04-.72zm16.334.24h-5.7V143h-2.5v-10.68h8.2v2.12zm1.82-2.12h2.5v7.04l5.9-7.04h2.28V143h-2.5v-7.04l-5.88 7.04h-2.3v-10.68zm18.903 10.82c-1.107 0-2.1-.233-2.98-.7a5.16 5.16 0 01-2.06-1.94c-.494-.84-.74-1.787-.74-2.84s.246-1.993.74-2.82a5.191 5.191 0 012.04-1.94c.88-.467 1.88-.7 3-.7 1.053 0 1.973.213 2.76.64.8.427 1.4 1.04 1.8 1.84l-1.92 1.12c-.307-.493-.694-.86-1.16-1.1a3.03 3.03 0 00-1.5-.38c-.934 0-1.707.307-2.32.92-.614.6-.92 1.407-.92 2.42s.3 1.827.9 2.44c.613.6 1.393.9 2.34.9a3.16 3.16 0 001.5-.36 3.113 3.113 0 001.16-1.12l1.92 1.12c-.414.8-1.02 1.42-1.82 1.86-.787.427-1.7.64-2.74.64zm15.123-8.7h-3.74V143h-2.5v-8.56h-3.76v-2.12h10v2.12zm7.734-2.24c1.04 0 1.966.227 2.78.68a4.888 4.888 0 011.94 1.92c.466.827.7 1.78.7 2.86 0 1.08-.234 2.04-.7 2.88a4.888 4.888 0 01-1.94 1.92c-.814.453-1.74.68-2.78.68-1.44 0-2.58-.48-3.42-1.44v5.18h-2.5v-14.56h2.38v1.4c.413-.507.92-.887 1.52-1.14a5.244 5.244 0 012.02-.38zm-.28 8.8c.92 0 1.673-.307 2.26-.92.6-.613.9-1.42.9-2.42s-.3-1.807-.9-2.42c-.587-.613-1.34-.92-2.26-.92-.6 0-1.14.14-1.62.42-.48.267-.86.653-1.14 1.16-.28.507-.42 1.093-.42 1.76s.14 1.253.42 1.76c.28.507.66.9 1.14 1.18.48.267 1.02.4 1.62.4zm12.031-8.8c1.573 0 2.773.38 3.6 1.14.84.747 1.26 1.88 1.26 3.4V143h-2.36v-1.3c-.307.467-.747.827-1.32 1.08-.56.24-1.24.36-2.04.36s-1.5-.133-2.1-.4c-.6-.28-1.067-.66-1.4-1.14a2.985 2.985 0 01-.48-1.66c0-.96.353-1.727 1.06-2.3.72-.587 1.847-.88 3.38-.88h2.76v-.16c0-.747-.227-1.32-.68-1.72-.44-.4-1.1-.6-1.98-.6-.6 0-1.193.093-1.78.28a4.376 4.376 0 00-1.46.78l-.98-1.82c.56-.427 1.233-.753 2.02-.98a8.977 8.977 0 012.5-.34zm-.34 9.12c.627 0 1.18-.14 1.66-.42.493-.293.84-.707 1.04-1.24v-1.24h-2.58c-1.44 0-2.16.473-2.16 1.42 0 .453.18.813.54 1.08.36.267.86.4 1.5.4zm20.014-.44v4.58h-2.34V143h-9.38v-10.68h2.5v8.56h5.1v-8.56h2.5v8.56h1.62zm2.225-8.56h2.5v7.04l5.9-7.04h2.28V143h-2.5v-7.04l-5.88 7.04h-2.3v-10.68zm14.043 0h2.5v7.04l5.9-7.04h2.28V143h-2.5v-7.04l-5.88 7.04h-2.3v-10.68zm14.803 10.82c-.454 0-.84-.153-1.16-.46-.32-.32-.48-.72-.48-1.2 0-.493.153-.893.46-1.2.32-.307.713-.46 1.18-.46.466 0 .853.153 1.16.46.32.307.48.707.48 1.2 0 .48-.16.88-.48 1.2-.32.307-.707.46-1.16.46zM133.315 13.563c-.625 0-1.132.545-1.132 1.218 0 1.476-1.117 2.678-2.489 2.678-1.373 0-2.489-1.201-2.489-2.678 0-1.477 1.116-2.678 2.489-2.678.625 0 1.131-.545 1.131-1.218 0-.672-.506-1.217-1.131-1.217-2.62 0-4.752 2.294-4.752 5.113 0 2.819 2.132 5.112 4.752 5.112 2.62 0 4.752-2.293 4.752-5.112 0-.673-.507-1.218-1.131-1.218zm0 14.283c-.625 0-1.132.546-1.132 1.218 0 1.477-1.117 2.678-2.489 2.678-1.373 0-2.489-1.201-2.489-2.678 0-1.477 1.116-2.678 2.489-2.678.625 0 1.131-.545 1.131-1.218 0-.672-.506-1.217-1.131-1.217-2.62 0-4.752 2.294-4.752 5.113 0 2.819 2.132 5.112 4.752 5.112 2.62 0 4.752-2.293 4.752-5.112 0-.672-.507-1.218-1.131-1.218zm18.372 3.462h-8.449c-.624 0-1.131.545-1.131 1.217 0 .673.506 1.218 1.131 1.218h8.449c.624 0 1.131-.545 1.131-1.218 0-.672-.507-1.217-1.131-1.217zm0-5.194h-8.449c-.624 0-1.131.545-1.131 1.217 0 .673.506 1.218 1.131 1.218h8.449c.624 0 1.131-.545 1.131-1.218 0-.672-.507-1.217-1.131-1.217zm-2.414 19.476h-6.035c-.624 0-1.131.546-1.131 1.218 0 .673.506 1.218 1.131 1.218h6.035c.625 0 1.131-.545 1.131-1.218 0-.672-.506-1.217-1.131-1.217zm2.414-5.193h-8.449c-.624 0-1.131.545-1.131 1.218 0 .672.506 1.217 1.131 1.217h8.449c.624 0 1.131-.545 1.131-1.218 0-.672-.507-1.217-1.131-1.217zm10.861-23.372h-19.31c-.624 0-1.131.545-1.131 1.217s.506 1.217 1.131 1.217h19.31c.625 0 1.132-.545 1.132-1.217s-.507-1.217-1.132-1.217zm-4.827-5.195h-14.483c-.624 0-1.131.546-1.131 1.218 0 .672.506 1.217 1.131 1.217h14.483c.625 0 1.131-.545 1.131-1.217s-.506-1.217-1.131-1.217zm-24.406 30.3c-.625 0-1.132.545-1.132 1.217 0 1.477-1.117 2.678-2.489 2.678-1.373 0-2.489-1.201-2.489-2.678 0-1.477 1.116-2.678 2.489-2.678.625 0 1.131-.545 1.131-1.217 0-.673-.506-1.218-1.131-1.218-2.62 0-4.752 2.294-4.752 5.113 0 2.819 2.132 5.113 4.752 5.113 2.62 0 4.752-2.294 4.752-5.113 0-.672-.507-1.217-1.131-1.217z" fill="#fff"/><path d="M169.487 0h-53.836C113.087 0 111 1.711 111 3.814V58.35c0 2.103 2.086 3.814 4.651 3.814h26.918c.82 0 1.485-.545 1.485-1.217s-.665-1.218-1.485-1.218h-26.918c-.927 0-1.682-.618-1.682-1.38V3.815c0-.76.755-1.38 1.682-1.38h53.836c.928 0 1.682.62 1.682 1.38v40.253c0 .672.665 1.217 1.485 1.217.82 0 1.484-.545 1.484-1.217V3.814c0-2.103-2.086-3.814-4.651-3.814z" fill="#fff"/><path d="M181.276 49.365a3.966 3.966 0 00-2.935.887c-.663-1.196-1.792-2.045-3.1-2.186a3.963 3.963 0 00-2.934.888c-.663-1.197-1.793-2.045-3.1-2.186a3.93 3.93 0 00-2.31.466V31.73c0-1.258-.497-2.465-1.366-3.31a3.982 3.982 0 00-3.206-1.13c-2.089.225-3.725 2.257-3.725 4.626v15.541l-3.326 3.579c-1.767 1.901-2.481 4.6-1.908 7.217l2.525 11.546c1.023 4.679 4.857 7.946 9.325 7.946h10.205c5.282 0 9.579-4.623 9.579-10.306V53.99c0-2.369-1.636-4.4-3.724-4.625zm1.461 18.074c0 4.34-3.282 7.872-7.316 7.872h-10.205c-3.412 0-6.341-2.496-7.123-6.069l-2.525-11.546c-.391-1.791.097-3.637 1.306-4.938L158.6 50.9v4.203c0 .672.507 1.217 1.131 1.217.625 0 1.132-.545 1.132-1.217V31.916c0-1.133.741-2.1 1.687-2.203a1.79 1.79 0 011.463.513c.395.385.621.933.621 1.506v21.424c0 .672.507 1.218 1.132 1.218.625 0 1.131-.545 1.131-1.218V51.21c0-.573.227-1.121.622-1.506.4-.389.919-.572 1.463-.513.946.102 1.687 1.07 1.687 2.204v3.06c0 .673.507 1.218 1.131 1.218.625 0 1.132-.545 1.132-1.218v-1.947c0-.572.226-1.121.621-1.505.4-.39.92-.572 1.463-.514.946.102 1.688 1.07 1.688 2.204v3.06c0 .673.506 1.218 1.131 1.218s1.131-.545 1.131-1.217v-1.948c0-.572.227-1.12.622-1.505.4-.39.919-.572 1.463-.513.946.102 1.687 1.07 1.687 2.203v13.45h-.001z" fill="#fff"/></svg>